<svg version="1.1" id="Layer_1" xmlns="http://www.w3.org/2000/svg" xmlns:xlink="http://www.w3.org/1999/xlink" x="0px" y="0px"
	 width="40%" viewBox="0 0 225 225" enable-background="new 0 0 225 225" xml:space="preserve">

<path fill="#FEAF04" opacity="1.000000" stroke="none" 
	d="
M226.000000,187.535355 
	C224.537781,191.649170 223.314133,195.416626 221.573166,198.927582 
	C212.841812,216.535568 193.166428,225.487534 174.249649,220.606384 
	C155.279312,215.711395 142.431503,198.516144 143.054993,178.856064 
	C143.661896,159.719284 157.777466,143.456055 176.941528,139.813751 
	C199.721695,135.484161 221.044662,150.343719 225.688812,173.783966 
	C226.000000,178.356903 226.000000,182.713806 226.000000,187.535355 
M159.680527,176.820114 
	C153.408966,176.749496 156.627319,180.944763 156.097198,184.216034 
	C164.489960,184.216034 172.393555,184.216034 180.988632,184.216034 
	C180.988632,192.765701 180.988632,200.800735 180.988632,208.642975 
	C183.764313,208.642975 185.827728,208.642975 188.413910,208.642975 
	C188.413910,200.324692 188.413910,192.417267 188.413910,184.005310 
	C196.845276,184.005310 204.751602,184.005310 212.762817,184.005310 
	C212.762817,181.413803 212.762817,179.354401 212.762817,176.755402 
	C204.537048,176.755402 196.634720,176.755402 188.030365,176.755402 
	C188.030365,168.199249 188.030365,160.164886 188.030365,152.333359 
	C185.235580,152.333359 183.181808,152.333359 180.591339,152.333359 
	C180.591339,160.656830 180.591339,168.557953 180.591339,176.818848 
	C173.579926,176.818848 167.111801,176.818848 159.680527,176.820114 
z"/>
<path fill="#FEAF04" opacity="1.000000" stroke="none" 
	d="
M1.000000,141.458069 
	C1.985514,137.905991 2.984027,134.816040 3.954388,131.717285 
	C9.369329,114.425209 20.034288,101.355736 35.666172,92.283775 
	C37.709713,91.097809 39.504383,90.095726 41.887928,92.229469 
	C55.816917,104.698708 71.217529,106.626732 88.369835,97.916656 
	C90.160881,100.321327 91.993362,102.781616 93.979584,105.448318 
	C64.614365,118.984749 47.305649,141.440506 41.873512,173.579834 
	C26.291834,169.853531 13.471240,161.973923 1.333268,152.067474 
	C1.000000,148.638718 1.000000,145.277420 1.000000,141.458069 
z"/>
<path fill="#1FA6C6" opacity="1.000000" stroke="none" 
	d="
M130.883972,213.978348 
	C101.117653,214.683960 75.086334,205.894257 52.305935,187.410934 
	C49.733570,185.323792 48.589607,183.202454 48.833260,179.828720 
	C51.013245,149.643738 66.236771,128.230988 92.505333,113.948097 
	C102.486412,122.265381 112.669479,129.220718 126.343056,129.158432 
	C139.782120,129.097198 149.898941,122.488655 160.299591,113.606407 
	C167.304062,118.594757 174.518311,123.732498 183.001144,129.773697 
	C178.687881,131.283554 176.106583,132.451157 173.400635,133.094116 
	C140.832748,140.832535 125.630630,178.469223 143.717453,206.704056 
	C146.886307,211.650879 146.487869,212.522095 140.801926,213.066315 
	C137.657562,213.367264 134.512711,213.662796 130.883972,213.978348 
z"/>
<path fill="#FCD09F" opacity="1.000000" stroke="none" 
	d="
M116.127975,113.117554 
	C95.985573,103.194046 87.329811,85.897324 83.891708,65.280434 
	C79.725159,40.295361 99.936295,16.436672 125.340660,16.049368 
	C152.504135,15.635242 173.038406,40.211361 168.289810,67.094902 
	C165.170959,84.751945 157.245560,99.419693 142.537598,109.897652 
	C134.628723,115.531952 125.780670,116.850677 116.127975,113.117554 
z"/>
<path fill="#EFC59C" opacity="1.000000" stroke="none" 
	d="
M86.633987,28.659088 
	C74.079979,45.430218 73.698051,63.262665 80.527916,81.859352 
	C82.596008,87.490448 82.564072,88.105255 76.658661,89.916344 
	C63.787914,93.863594 53.885357,88.441399 45.729031,79.109871 
	C36.815136,68.911606 31.612114,56.683590 31.294910,43.278397 
	C30.853918,24.641836 43.048382,9.776896 61.040337,5.995688 
	C75.356384,2.987014 87.087250,7.556634 96.606216,18.018641 
	C93.177917,21.649433 90.007820,25.006771 86.633987,28.659088 
z"/>
<path fill="#FFFFFF" opacity="1.000000" stroke="none" 
	d="
M160.162109,176.819489 
	C167.111801,176.818848 173.579926,176.818848 180.591339,176.818848 
	C180.591339,168.557953 180.591339,160.656830 180.591339,152.333359 
	C183.181808,152.333359 185.235580,152.333359 188.030365,152.333359 
	C188.030365,160.164886 188.030365,168.199249 188.030365,176.755402 
	C196.634720,176.755402 204.537048,176.755402 212.762817,176.755402 
	C212.762817,179.354401 212.762817,181.413803 212.762817,184.005310 
	C204.751602,184.005310 196.845276,184.005310 188.413910,184.005310 
	C188.413910,192.417267 188.413910,200.324692 188.413910,208.642975 
	C185.827728,208.642975 183.764313,208.642975 180.988632,208.642975 
	C180.988632,200.800735 180.988632,192.765701 180.988632,184.216034 
	C172.393555,184.216034 164.489960,184.216034 156.097198,184.216034 
	C156.627319,180.944763 153.408966,176.749496 160.162109,176.819489 
z"/>
</svg>