<?xml version="1.0" standalone="no"?>
<!DOCTYPE svg PUBLIC "-//W3C//DTD SVG 20010904//EN"
 "http://www.w3.org/TR/2001/REC-SVG-20010904/DTD/svg10.dtd">
<svg version="1.0" xmlns="http://www.w3.org/2000/svg"
 width="980.000000pt" height="980.000000pt" viewBox="0 0 980.000000 980.000000"
 preserveAspectRatio="xMidYMid meet">

<g transform="translate(0.000000,980.000000) scale(0.100000,-0.100000)"
fill="#000000" stroke="none">
<path d="M5075 6290 c-920 -122 -1069 -143 -1087 -149 -10 -4 453 -28 1030
-54 576 -26 1070 -50 1097 -53 33 -3 47 -2 40 5 -5 5 -100 82 -210 170 -186
150 -202 161 -240 160 -22 -1 -305 -36 -630 -79z"/>
<path d="M2287 5155 c-6 -17 -57 -288 -176 -917 l-28 -147 106 -3 106 -3 -145
-75 c-197 -102 -222 -142 -162 -261 43 -86 111 -118 189 -88 32 12 18 24 143
-129 41 -51 78 -92 82 -92 10 0 78 60 78 70 0 4 -32 47 -71 96 -98 123 -97
119 -51 148 79 50 165 87 245 106 100 24 235 26 292 4 68 -26 79 -27 100 -4
19 21 19 22 -38 131 -45 87 -55 114 -47 129 31 58 -8 148 -80 183 -42 20 -50
30 -96 121 -54 108 -80 134 -113 116 -16 -8 -21 -21 -21 -51 0 -45 -25 -99
-78 -171 -31 -41 -38 -46 -44 -31 -4 10 -46 209 -93 443 -47 234 -87 430 -89
435 -1 6 -6 1 -9 -10z"/>
<path d="M7630 4560 c-51 -116 -90 -214 -87 -217 9 -8 677 25 677 33 0 10
-460 381 -484 390 -8 3 -44 -66 -106 -206z"/>
<path d="M3068 4593 c-21 -2 -38 -7 -38 -11 0 -4 -8 -55 -19 -114 -10 -60 -15
-108 -11 -108 6 0 154 194 174 228 7 12 -21 14 -106 5z"/>
<path d="M3183 4407 c-73 -40 -129 -73 -124 -75 9 -3 289 65 303 74 10 7 -23
74 -36 73 -6 0 -70 -33 -143 -72z"/>
<path d="M3175 4284 c-77 -13 -144 -23 -150 -24 -12 -1 194 -79 212 -79 14 -1
96 116 85 122 -4 2 -70 -7 -147 -19z"/>
</g>
</svg>
