<svg version="1.1" id="Layer_1" xmlns="http://www.w3.org/2000/svg" xmlns:xlink="http://www.w3.org/1999/xlink" x="0px" y="0px"
	 width="100%"  viewBox="0 200 980 500" enable-background="new 0 0 980 980" xml:space="preserve">

<path fill="#FEAF04" opacity="1.000000" stroke="none" 
	d="
M211.830475,386.078949 
	C210.224243,377.963684 208.496170,369.869781 207.066025,361.723602 
	C206.405411,357.960754 208.100601,355.753662 212.249741,355.994934 
	C214.385513,356.119141 216.529602,356.100677 218.458633,356.551514 
	C216.142059,356.956329 214.036758,356.956329 211.931473,356.956329 
	C211.669922,357.538055 211.408386,358.119781 211.146851,358.701508 
	C212.251511,359.538544 213.311981,361.019836 214.468643,361.099213 
	C219.060577,361.414307 223.692001,361.118835 228.291290,361.370087 
	C235.745346,361.777252 243.195282,362.332977 250.628464,363.024750 
	C255.860840,363.511688 261.047394,364.642639 266.282898,364.895050 
	C270.226318,365.085205 274.211517,364.287018 278.184204,364.019196 
	C285.712311,363.511658 292.905151,365.439484 300.262024,366.558563 
	C309.312561,367.935303 318.751404,366.675262 328.021729,366.713898 
	C338.036102,366.755646 348.059540,366.749664 358.061493,367.176514 
	C376.306061,367.955231 394.544220,368.931000 412.772064,370.037933 
	C422.156128,370.607819 431.517670,372.329407 440.879547,372.257111 
	C449.648071,372.189392 458.455353,376.594727 467.218781,372.237518 
	C467.849213,371.924042 468.840851,372.356567 469.666565,372.413391 
	C487.051727,373.609955 504.422668,375.129456 521.826721,375.904236 
	C539.434021,376.688019 557.091675,376.367950 574.694946,377.208374 
	C591.390503,378.005463 608.028748,379.951599 624.720154,380.899323 
	C645.738281,382.092712 666.780884,382.894226 687.820190,383.665558 
	C712.056335,384.554108 736.300537,385.223511 760.541077,385.991730 
	C766.123962,386.168640 771.828308,385.095886 777.027100,388.522766 
	C778.342712,389.390045 780.593445,388.945648 782.412415,388.924805 
	C792.705688,388.806854 803.037964,386.841949 813.273376,389.788940 
	C814.345032,390.097473 815.750610,389.246307 817.328003,388.945251 
	C818.090210,388.961578 818.525574,388.965851 819.203918,389.122437 
	C819.534180,390.030823 819.932556,390.942841 819.647278,391.512268 
	C818.942566,392.918732 817.753357,394.085693 817.071411,395.499634 
	C815.968445,397.786346 815.116089,400.193939 814.157898,402.550507 
	C812.164246,407.144348 810.853455,411.961426 808.945862,416.529266 
	C803.441833,429.709045 797.746887,442.810059 792.024780,455.897369 
	C789.435669,461.818909 786.556396,467.612915 783.901367,473.506500 
	C782.194031,477.296448 780.655151,481.162323 779.005249,485.368591 
	C776.802551,490.919403 774.478455,496.037323 772.520630,501.291718 
	C771.098022,505.109619 770.159790,509.108002 768.997925,513.013000 
	C768.990234,513.000061 769.020386,513.000061 768.655151,513.021118 
	C767.518127,513.793579 766.440979,514.405273 766.023315,515.318604 
	C762.868652,522.217285 759.720459,529.124390 756.827454,536.135071 
	C755.259583,539.934448 754.195740,543.941772 752.633301,548.060303 
	C750.469055,551.316711 748.862061,554.605164 746.592957,557.345215 
	C744.753052,559.566956 742.240173,562.551453 739.815430,562.760864 
	C719.570374,564.508911 699.276489,565.692566 678.535400,567.040039 
	C672.104187,567.352783 665.832764,568.979492 660.236572,567.685547 
	C651.779480,565.730164 644.278687,569.409729 636.265320,569.586182 
	C627.492981,569.779419 618.761414,571.379089 609.984436,571.909241 
	C595.283447,572.797058 580.555603,573.236023 565.850891,574.071655 
	C562.782349,574.245972 559.790039,575.727905 556.720032,575.917786 
	C538.398254,577.050537 520.069519,578.101074 501.732391,578.946289 
	C483.022919,579.808655 464.300354,580.385315 445.586151,581.151489 
	C444.299622,581.204163 442.931122,581.589905 441.780121,582.174194 
	C438.514465,583.831909 435.358978,584.795532 431.827576,582.752930 
	C431.002411,582.275635 429.612885,582.669983 428.501831,582.811340 
	C425.725739,583.164490 422.962555,583.908447 420.190308,583.927368 
	C416.888092,583.949890 413.528259,582.862915 410.291138,583.198914 
	C406.368378,583.606079 402.595428,585.452942 398.672546,585.863708 
	C391.907898,586.571960 385.033905,586.282715 378.284363,587.078308 
	C366.642792,588.450378 354.783142,586.847107 343.264923,589.818176 
	C341.712799,590.218506 339.958344,589.830872 338.297546,589.814819 
	C335.844421,589.791077 333.375122,589.582703 330.941040,589.788269 
	C323.037872,590.455811 315.126709,591.111816 307.261688,592.110962 
	C303.662415,592.568176 302.780975,591.059326 303.305176,587.871948 
	C304.002869,586.578796 304.386932,585.406677 304.770996,584.234619 
	C304.311157,584.158203 303.851318,584.081787 303.391479,584.005432 
	C303.263855,585.339783 303.136200,586.674194 302.720947,587.818726 
	C299.885986,581.818604 297.202301,576.061768 294.884583,570.161255 
	C294.285065,568.634949 294.543091,566.596008 294.905640,564.899048 
	C296.243866,558.635742 291.440765,551.223999 284.850952,549.668457 
	C282.861267,547.252136 280.709991,545.314819 279.319305,542.933228 
	C276.174927,537.548340 273.665100,531.778625 270.315948,526.536865 
	C269.390656,525.088562 266.264313,524.095276 264.430847,524.432312 
	C262.384308,524.808533 259.537292,526.601990 259.010132,528.367310 
	C257.548828,533.260681 257.112335,538.460205 256.299072,543.686462 
	C256.327332,543.834229 256.168365,544.089661 255.806854,544.093323 
	C253.954193,545.195129 252.463028,546.293274 249.832870,548.230164 
	C238.365402,491.055725 227.048660,434.632782 215.731918,378.209869 
	C215.047974,378.159882 214.364014,378.109894 213.680054,378.059906 
	C213.063538,380.732941 212.447006,383.405945 211.830475,386.078949 
M315.596222,541.271301 
	C315.356445,541.510376 315.116669,541.749451 314.708496,542.139099 
	C314.708496,542.139099 314.485229,542.173279 313.792053,541.820740 
	C312.431519,539.451111 311.070953,537.081543 309.811035,534.767273 
	C309.811035,534.767273 309.708923,534.693848 310.466309,534.754456 
	C312.800385,534.557983 315.134460,534.361511 318.654083,534.065308 
	C313.664124,530.491211 315.325592,528.502014 319.040100,527.643860 
	C319.311798,528.457031 319.583496,529.270142 319.855194,530.083313 
	C320.261749,529.820129 320.668335,529.556946 321.074921,529.293762 
	C320.379791,528.531982 319.684662,527.770203 319.294830,526.345154 
	C320.468201,522.326965 323.451080,521.856628 327.108093,521.935303 
	C337.095551,522.150391 345.777405,519.743774 348.743591,508.658264 
	C349.928680,504.229156 350.820465,499.574554 350.866425,495.012695 
	C351.084320,473.381470 350.968170,451.746796 350.954620,430.113373 
	C350.953796,428.786285 350.920105,427.442413 350.717255,426.134979 
	C349.653168,419.276886 349.635254,419.310120 342.711273,419.952728 
	C341.061676,420.105835 339.380585,420.079590 337.724396,419.973389 
	C331.496918,419.574127 331.027740,419.952606 331.016113,426.402527 
	C330.990601,440.547394 331.021729,454.692352 331.023407,468.837280 
	C331.024475,477.657043 331.108948,486.478241 330.972961,495.295990 
	C330.892700,500.500305 328.322144,503.113098 323.896210,503.015259 
	C317.699493,502.878296 317.191925,503.349731 317.021973,509.400879 
	C316.776489,518.140381 316.776489,518.140381 308.266388,519.712952 
	C304.261688,520.452942 298.725159,526.663391 298.700989,530.502686 
	C298.671936,535.117310 298.694122,539.732239 298.694122,544.956177 
	C306.199677,551.096680 307.318115,551.386902 312.847717,548.002380 
	C314.679138,548.315857 316.510559,548.629333 318.341980,548.942810 
	C318.265381,549.523682 318.188751,550.104614 318.112122,550.685547 
	C316.556763,550.797974 314.987640,550.815979 313.448822,551.041260 
	C309.526917,551.615112 305.597076,552.178589 301.721191,552.989075 
	C300.835327,553.174377 300.154449,554.339722 299.379211,555.054016 
	C300.035095,555.678467 300.585236,556.590698 301.365234,556.877258 
	C304.604279,558.067078 307.915253,559.060242 311.194794,560.140930 
	C313.993042,561.062988 317.579742,561.241577 319.387848,563.123108 
	C321.944763,565.783752 324.266479,566.220642 326.532654,564.142517 
	C328.169708,562.641235 328.715393,559.949829 329.821930,557.838196 
	C329.821930,557.838196 329.743744,557.776245 330.451935,557.756592 
	C336.707031,552.688110 336.600372,550.323914 329.927765,546.650391 
	C332.500824,544.676575 335.065735,542.708984 337.735291,540.245239 
	C337.805878,540.091614 337.876434,539.938049 338.448273,539.733215 
	C338.687286,539.441162 338.926300,539.149109 339.165314,538.857056 
	C338.682892,538.642212 338.200470,538.427368 337.734131,538.110718 
	C337.734131,538.110718 337.836334,538.123962 337.902679,537.362244 
	C337.155212,536.288513 336.407715,535.214722 335.140137,533.826843 
	C334.679108,533.431641 334.218109,533.036438 333.577515,532.109192 
	C330.745453,530.271118 329.719452,531.964172 328.652100,534.871277 
	C327.155273,535.608459 325.658417,536.345581 323.629913,536.681274 
	C322.007782,537.566101 320.385620,538.450928 318.767609,539.582092 
	C318.767609,539.582092 318.522766,539.610107 318.053070,539.167297 
	C317.382874,539.796265 316.712677,540.425232 316.001190,541.043335 
	C316.001190,541.043335 316.034302,541.016357 315.596222,541.271301 
M489.805603,486.499573 
	C489.805603,476.389496 489.805603,466.279449 489.805603,456.169373 
	C490.305908,456.143280 490.806183,456.117188 491.306488,456.091095 
	C491.853424,457.636353 492.518799,459.150909 492.929047,460.731659 
	C497.194275,477.164856 501.349060,493.627045 505.678497,510.043182 
	C508.548737,520.926514 506.423492,519.221191 518.119019,519.619751 
	C522.589355,519.772095 524.141357,518.248535 524.103638,513.585938 
	C523.873230,485.095001 523.942444,456.601715 523.910278,428.109192 
	C523.903992,422.522675 523.886536,422.805176 515.329285,422.368866 
	C510.701721,422.132935 510.074066,424.191376 510.122406,427.971954 
	C510.286377,440.798157 510.268768,453.626892 510.271240,466.454681 
	C510.271637,468.641846 510.029510,470.829102 509.899445,473.016296 
	C508.223236,471.593994 507.541870,470.133301 507.143860,468.599091 
	C504.259888,457.481171 501.365875,446.365021 498.606049,435.215881 
	C495.494537,422.646118 495.554169,422.631561 482.777313,422.507843 
	C482.110870,422.501404 481.430664,422.570190 480.780426,422.462097 
	C477.360565,421.893616 475.914062,423.237762 475.925323,426.770203 
	C476.019440,456.262573 476.053711,485.755310 476.020905,515.247803 
	C476.017273,518.519165 477.344055,519.820801 480.512268,519.540039 
	C481.668427,519.437622 482.856934,519.366333 484.000488,519.514282 
	C488.258392,520.064758 490.004608,518.495789 489.867126,513.990784 
	C489.597839,505.168030 489.798859,496.330902 489.805603,486.499573 
M378.020905,425.472351 
	C372.594635,429.853241 369.982605,435.749786 369.926056,442.505157 
	C369.762939,461.991028 369.715271,481.483093 370.066681,500.964691 
	C370.165649,506.451660 372.078613,511.774475 376.806946,515.446533 
	C385.109863,521.894714 394.246582,522.557556 403.680023,518.738464 
	C412.563599,515.142029 415.674866,507.400482 415.819000,498.611542 
	C416.122162,480.125793 416.247833,461.621643 415.691284,443.147797 
	C415.545776,438.317993 413.408539,433.091370 410.821899,428.886017 
	C405.258270,419.840729 387.696228,418.469788 378.020905,425.472351 
M437.881256,514.243225 
	C437.098572,521.163513 442.258148,519.421570 445.857178,519.532288 
	C453.094147,519.754944 453.097046,519.641907 453.097870,512.609375 
	C453.101105,485.622040 453.080811,458.634644 453.121552,431.647369 
	C453.135101,422.669617 453.183716,423.031769 444.244019,422.461792 
	C438.964233,422.125183 437.759003,423.907593 437.793304,428.843658 
	C437.989044,456.995819 437.896027,485.149994 437.881256,514.243225 
M580.094482,421.203979 
	C579.402588,423.678070 578.125793,426.148346 578.109802,428.626801 
	C577.959412,451.936371 577.778564,475.251862 578.209229,498.554504 
	C578.310181,504.014526 580.104004,509.682281 582.266296,514.766479 
	C583.381409,517.388428 586.732849,519.669250 589.588806,520.780518 
	C592.881592,522.061646 596.731445,522.116089 600.359009,522.286743 
	C606.810913,522.590271 614.098755,523.588928 618.707642,518.432312 
	C623.188416,513.419128 625.953369,506.855621 629.322083,500.888367 
	C629.704102,500.211761 629.119812,498.988586 628.980896,498.019226 
	C628.653870,495.736420 628.080872,493.457947 628.042236,491.170380 
	C627.918518,483.846252 627.881226,476.516785 628.014709,469.193085 
	C628.250854,456.231598 628.517517,443.268219 629.023193,430.315460 
	C629.210876,425.506012 628.476990,421.436188 625.465881,419.706726 
	C619.867859,419.706726 615.777039,419.706726 610.079773,419.706726 
	C609.543884,422.768585 608.570129,426.788452 608.225220,430.861572 
	C608.005676,433.454987 608.963013,436.126312 608.974548,438.764557 
	C609.050781,456.247131 609.065002,473.730499 608.964417,491.212830 
	C608.947388,494.176270 608.744019,497.308533 607.734741,500.032257 
	C607.135925,501.648193 604.942139,503.128326 603.165527,503.652435 
	C602.330078,503.898895 599.880615,501.869781 599.716553,500.660980 
	C598.856201,494.319458 598.107178,487.915070 598.030212,481.523987 
	C597.804260,462.762115 597.909546,443.996185 597.896362,425.231842 
	C597.893921,421.713165 596.102173,419.780304 592.659790,420.115051 
	C588.296387,420.539398 583.970947,421.461487 580.734680,417.305206 
	C580.703674,417.265381 580.207886,417.587463 579.886230,417.764160 
	C580.050293,418.707611 580.215515,419.657593 580.094482,421.203979 
M671.324280,452.425934 
	C675.309692,452.598572 679.295410,452.921387 683.280396,452.911621 
	C690.843994,452.893066 694.024902,449.078552 692.612488,441.721436 
	C691.987244,438.464203 691.422424,435.069000 690.020752,432.121277 
	C688.503601,428.930573 686.652100,425.257111 683.871155,423.437622 
	C677.320618,419.151825 669.761597,417.878326 661.918823,419.305725 
	C659.562866,419.734497 656.662964,419.534332 654.968445,420.851990 
	C644.459839,429.023682 641.430725,440.130615 643.540527,452.880127 
	C645.253235,463.230164 652.518860,470.002991 659.428772,476.988586 
	C665.435181,483.060760 674.656555,487.300934 671.627808,498.347565 
	C670.568970,499.057617 669.195740,499.676300 668.228821,500.684570 
	C665.510010,503.519653 664.882202,502.990967 662.930481,499.613861 
	C660.954407,496.194550 666.028137,491.263153 660.869385,489.431824 
	C657.306580,488.167175 653.128784,488.636017 649.226135,488.326965 
	C648.564270,488.274536 647.663452,487.898499 647.282898,488.196075 
	C645.320312,489.730316 641.619934,491.979980 641.914978,492.993591 
	C644.059448,500.361206 641.139526,509.244171 648.097229,515.154236 
	C650.623718,517.300354 653.143555,519.694031 656.093933,521.032104 
	C658.885254,522.297974 662.218872,522.663574 665.346130,522.833130 
	C672.317017,523.210999 679.140259,523.407104 684.878174,517.838623 
	C695.981995,507.062836 694.269348,489.067993 688.502502,477.393341 
	C687.323303,475.006042 686.418823,472.483063 685.942261,471.345886 
	C680.017639,466.318542 674.805298,461.979828 669.693298,457.525909 
	C666.671631,454.893280 664.544312,451.947449 667.086792,449.558502 
	C665.514038,446.529572 663.504211,444.323608 663.563538,442.174744 
	C663.601624,440.793884 666.684204,439.496979 668.402161,438.162476 
	C669.265381,440.325043 670.128540,442.487610 671.293579,445.406525 
	C671.149536,445.379547 672.204590,445.577118 672.658508,445.662109 
	C672.106140,447.886444 671.624451,449.826202 671.324280,452.425934 
M296.522705,521.327881 
	C296.201599,522.552551 295.880493,523.777161 295.559387,525.001831 
	C296.356293,525.026672 297.153229,525.051514 297.950134,525.076355 
	C297.677521,523.808899 297.404877,522.541382 296.522705,521.327881 
M678.994751,417.148773 
	C678.956482,417.527039 678.918274,417.905304 678.880005,418.283569 
	C679.301697,418.236176 679.723328,418.188751 680.145020,418.141357 
	C679.906555,417.823486 679.668091,417.505615 678.994751,417.148773 
M695.760864,487.479248 
	C695.596069,487.444855 695.431274,487.410492 695.266479,487.376099 
	C695.412842,487.489624 695.559265,487.603149 695.760864,487.479248 
M809.525330,390.499939 
	C809.525330,390.499939 809.487915,390.513306 809.525330,390.499939 
z"/>
<path fill="#1B1A35" opacity="1.000000" stroke="none" 
	d="
M550.887451,345.184113 
	C557.942261,343.825775 564.968323,342.268188 572.071289,341.243469 
	C573.940796,340.973755 576.422180,341.864258 577.980774,343.059143 
	C584.364014,347.952789 590.499146,353.170135 596.950623,358.900146 
	C602.264160,364.613617 607.352661,369.695312 613.025574,375.360657 
	C608.773071,375.847107 605.419556,376.230713 601.688232,376.678375 
	C600.553345,376.662292 599.796204,376.582184 598.823914,376.198456 
	C590.813782,375.259186 583.028198,374.407288 575.220398,374.068665 
	C570.508606,373.864288 565.762146,374.457520 560.572632,374.746033 
	C557.660828,374.609039 555.207581,374.418396 552.439575,374.083099 
	C545.047791,373.288635 537.981628,372.407440 530.889771,372.071838 
	C526.294861,371.854370 521.662170,372.434021 516.645325,372.728577 
	C515.173889,372.687469 514.103577,372.574249 512.815430,372.162109 
	C511.670135,371.574982 510.752258,371.073853 509.813721,371.031586 
	C501.023804,370.635834 492.232452,370.220947 483.436798,370.027435 
	C479.985840,369.951508 476.522858,370.422241 472.625122,370.702148 
	C470.133972,370.590393 468.083130,370.420502 465.787628,369.982635 
	C458.002777,369.140503 450.470459,368.376038 442.919434,368.063049 
	C438.329865,367.872803 433.711426,368.379517 428.720001,368.633179 
	C427.561981,368.608215 426.789917,368.523193 425.799835,368.143402 
	C420.900055,367.377869 416.218262,366.907104 411.536499,366.436310 
	C413.834961,364.901428 416.241974,364.715027 418.539459,364.111633 
	C423.389099,362.838013 429.118988,364.633881 433.020203,360.024231 
	C440.871246,359.017151 448.719849,357.990814 456.573944,357.008118 
	C465.433502,355.899658 474.301270,354.856781 483.159485,353.737946 
	C495.453552,352.185089 507.749725,350.644775 520.029724,348.985901 
	C526.095032,348.166534 532.126038,347.093414 538.748047,346.447357 
	C543.586792,349.234344 547.292542,347.615906 550.887451,345.184113 
z"/>
<path fill="#1B1A35" opacity="1.000000" stroke="none" 
	d="
M222.050583,616.644897 
	C221.724594,616.713440 221.399353,616.785767 221.072479,616.849792 
	C207.169830,619.572449 203.834747,617.951721 197.242661,605.270081 
	C193.015900,597.138794 195.739578,587.997803 203.885880,583.624756 
	C208.422745,581.189331 213.147125,579.104736 217.761688,576.811035 
	C218.416138,576.485779 218.926620,575.870850 219.221298,574.285767 
	C217.442871,574.498108 215.660629,574.682922 213.886734,574.928040 
	C208.667343,575.649292 206.671310,573.213440 207.707443,568.006714 
	C210.876450,552.081970 213.873795,536.123108 216.923721,520.174683 
	C219.976929,504.209351 223.013000,488.240723 226.376251,471.658264 
	C227.761993,469.115601 228.828064,467.188202 230.413467,464.321930 
	C232.041702,472.164337 233.460022,478.924713 234.847504,485.691437 
	C239.488983,508.327484 244.119415,530.965759 248.572128,553.949219 
	C242.401886,559.896667 236.950699,566.279663 230.268433,570.870972 
	C224.063965,575.133972 223.478317,574.295532 226.811020,580.979431 
	C227.697067,582.756409 228.668472,584.490845 229.554840,586.267700 
	C232.781738,592.736267 235.989212,599.214478 239.204010,605.689087 
	C238.513840,606.774536 237.823669,607.859985 236.683105,609.216797 
	C230.569885,607.519470 222.812744,611.433838 222.050583,616.644897 
M202.061050,610.252930 
	C202.061050,610.252930 202.379105,610.211487 202.379105,610.211487 
	C202.379105,610.211487 202.102295,609.915649 202.063507,609.541931 
	C201.887100,609.386414 201.710678,609.230896 201.534256,609.075378 
	C201.667206,609.411316 201.800140,609.747314 202.061050,610.252930 
M206.812332,613.678711 
	C206.591064,613.617737 206.369781,613.556763 206.148544,613.495789 
	C206.428314,613.667725 206.708084,613.839722 207.317627,614.348022 
	C207.738083,614.468140 208.158554,614.588196 208.579025,614.708252 
	C208.616302,614.519714 208.653564,614.331238 208.690842,614.142700 
	C208.130081,614.090881 207.569305,614.039062 206.812332,613.678711 
M198.483185,603.309631 
	C198.701950,603.275146 198.920731,603.240662 199.139511,603.206177 
	C198.911255,603.146790 198.683014,603.087463 198.483185,603.309631 
M200.441574,605.513367 
	C200.441574,605.513367 200.494965,605.490356 200.441574,605.513367 
z"/>
<path fill="#F72D2B" opacity="1.000000" stroke="none" 
	d="
M239.560608,605.657959 
	C235.989212,599.214478 232.781738,592.736267 229.554840,586.267700 
	C228.668472,584.490845 227.697067,582.756409 226.811020,580.979431 
	C223.478317,574.295532 224.063965,575.133972 230.268433,570.870972 
	C236.950699,566.279663 242.401886,559.896667 248.851288,553.910034 
	C251.597717,550.379761 253.883057,547.234741 256.168396,544.089661 
	C256.168365,544.089661 256.327332,543.834229 256.582886,543.484375 
	C258.505646,540.448608 260.172852,537.762756 262.140717,535.341187 
	C270.955475,551.971008 279.553345,568.293762 287.929138,584.729675 
	C290.239380,589.263000 291.887421,594.133728 293.839294,598.849670 
	C292.677765,598.548035 291.516235,598.246399 290.035522,597.522827 
	C288.820648,595.898438 288.020538,593.743896 287.014282,593.642944 
	C278.278107,592.765869 269.479431,591.939392 260.762543,595.373108 
	C261.336456,596.666199 261.791870,597.692322 262.247314,598.718506 
	C256.041290,600.716980 249.839508,602.728882 243.625504,604.702332 
	C242.413757,605.087158 241.154541,605.322571 239.560608,605.657959 
z"/>
<path fill="#ECAB14" opacity="1.000000" stroke="none" 
	d="
M599.039124,376.502075 
	C599.796204,376.582184 600.553345,376.662292 602.121948,376.803833 
	C608.768982,376.531494 614.898071,379.194733 620.370483,375.156647 
	C621.287048,375.448822 622.197144,375.972382 623.121216,375.998352 
	C636.025452,376.360992 648.938354,376.486389 661.835754,377.004517 
	C683.791199,377.886505 705.737915,378.988800 727.686768,380.030121 
	C740.714172,380.648193 753.733521,381.468079 766.765869,381.939911 
	C780.846863,382.449707 794.938843,382.659668 809.157227,383.269806 
	C806.855225,383.879761 804.421936,384.220337 801.988708,384.560944 
	C801.995911,384.987610 802.003174,385.414246 802.010437,385.840912 
	C805.316895,386.235504 808.648804,386.489502 811.919556,387.081451 
	C813.667908,387.397827 815.310730,388.297028 817.001221,388.933197 
	C815.750610,389.246307 814.345032,390.097473 813.273376,389.788940 
	C803.037964,386.841949 792.705688,388.806854 782.412415,388.924805 
	C780.593445,388.945648 778.342712,389.390045 777.027100,388.522766 
	C771.828308,385.095886 766.123962,386.168640 760.541077,385.991730 
	C736.300537,385.223511 712.056335,384.554108 687.820190,383.665558 
	C666.780884,382.894226 645.738281,382.092712 624.720154,380.899323 
	C608.028748,379.951599 591.390503,378.005463 574.694946,377.208374 
	C557.091675,376.367950 539.434021,376.688019 521.826721,375.904236 
	C504.422668,375.129456 487.051727,373.609955 469.666565,372.413391 
	C468.840851,372.356567 467.849213,371.924042 467.218781,372.237518 
	C458.455353,376.594727 449.648071,372.189392 440.879547,372.257111 
	C431.517670,372.329407 422.156128,370.607819 412.772064,370.037933 
	C394.544220,368.931000 376.306061,367.955231 358.061493,367.176514 
	C348.059540,366.749664 338.036102,366.755646 328.021729,366.713898 
	C318.751404,366.675262 309.312561,367.935303 300.262024,366.558563 
	C292.905151,365.439484 285.712311,363.511658 278.184204,364.019196 
	C274.211517,364.287018 270.226318,365.085205 266.282898,364.895050 
	C261.047394,364.642639 255.860840,363.511688 250.628464,363.024750 
	C243.195282,362.332977 235.745346,361.777252 228.291290,361.370087 
	C223.692001,361.118835 219.060577,361.414307 214.468643,361.099213 
	C213.311981,361.019836 212.251511,359.538544 211.146851,358.701508 
	C211.408386,358.119781 211.669922,357.538055 211.931473,356.956329 
	C214.036758,356.956329 216.142059,356.956329 218.676270,356.922668 
	C231.179016,357.253571 243.253098,357.609375 255.326538,357.985443 
	C264.907654,358.283844 274.490509,358.545593 284.068176,358.933105 
	C299.886444,359.573120 315.701843,360.285950 331.517212,360.996246 
	C354.084503,362.009796 376.650635,363.048767 399.830933,364.347046 
	C399.762665,365.448792 399.080750,366.280334 397.311279,368.438141 
	C407.588928,368.438141 416.803375,368.438141 426.017853,368.438171 
	C426.789917,368.523193 427.561981,368.608215 429.152405,368.754120 
	C439.390625,369.248505 448.809845,369.697784 458.230835,370.105255 
	C460.828552,370.217590 463.431641,370.205566 466.032257,370.250610 
	C468.083130,370.420502 470.133972,370.590393 473.053925,370.818237 
	C486.959747,371.404510 499.996521,371.932770 513.033264,372.461029 
	C514.103577,372.574249 515.173889,372.687469 517.080688,372.847717 
	C529.529541,373.339081 541.141968,373.783417 552.754395,374.227753 
	C555.207581,374.418396 557.660828,374.609039 561.003052,374.869446 
	C574.274414,375.460144 586.656799,375.981110 599.039124,376.502075 
M795.321899,385.948273 
	C795.919678,385.671234 796.517456,385.394226 797.115295,385.117188 
	C797.033569,384.800201 796.951843,384.483215 796.870117,384.166229 
	C795.573364,384.263763 794.276611,384.361267 792.979858,384.458801 
	C792.984314,384.783844 792.988770,385.108887 792.993225,385.433899 
	C793.557434,385.605652 794.121704,385.777374 795.321899,385.948273 
z"/>
<path fill="#EFAD1A" opacity="1.000000" stroke="none" 
	d="
M285.034637,549.945801 
	C291.440765,551.223999 296.243866,558.635742 294.905640,564.899048 
	C294.543091,566.596008 294.285065,568.634949 294.884583,570.161255 
	C297.202301,576.061768 299.885986,581.818604 302.716736,587.814453 
	C303.000122,588.000000 302.991577,587.993103 302.991577,587.993103 
	C302.780975,591.059326 303.662415,592.568176 307.261688,592.110962 
	C315.126709,591.111816 323.037872,590.455811 330.941040,589.788269 
	C333.375122,589.582703 335.844421,589.791077 338.297546,589.814819 
	C339.958344,589.830872 341.712799,590.218506 343.264923,589.818176 
	C354.783142,586.847107 366.642792,588.450378 378.284363,587.078308 
	C385.033905,586.282715 391.907898,586.571960 398.672546,585.863708 
	C402.595428,585.452942 406.368378,583.606079 410.291138,583.198914 
	C413.528259,582.862915 416.888092,583.949890 420.190308,583.927368 
	C422.962555,583.908447 425.725739,583.164490 428.501831,582.811340 
	C429.612885,582.669983 431.002411,582.275635 431.827576,582.752930 
	C435.358978,584.795532 438.514465,583.831909 441.780121,582.174194 
	C442.931122,581.589905 444.299622,581.204163 445.586151,581.151489 
	C464.300354,580.385315 483.022919,579.808655 501.732391,578.946289 
	C520.069519,578.101074 538.398254,577.050537 556.720032,575.917786 
	C559.790039,575.727905 562.782349,574.245972 565.850891,574.071655 
	C580.555603,573.236023 595.283447,572.797058 609.984436,571.909241 
	C618.761414,571.379089 627.492981,569.779419 636.265320,569.586182 
	C644.278687,569.409729 651.779480,565.730164 660.236572,567.685547 
	C665.832764,568.979492 672.104187,567.352783 678.589478,567.349121 
	C678.407837,569.064819 677.710144,570.465027 677.012451,571.865234 
	C664.187744,572.579712 651.358643,573.225098 638.539429,574.026917 
	C623.933594,574.940613 609.340088,576.049438 594.734741,576.971802 
	C577.829285,578.039490 560.912720,578.932312 544.008728,580.021484 
	C530.084167,580.918701 516.172180,582.010315 502.252167,582.980835 
	C492.095001,583.689087 481.923859,584.218384 471.776855,585.046448 
	C457.068176,586.246948 442.379181,587.686523 427.674469,588.937866 
	C422.089325,589.413330 416.486237,589.696655 410.887115,589.985779 
	C397.370758,590.683838 383.845856,591.230896 370.335724,592.030640 
	C355.560486,592.905457 340.793640,593.936707 326.031860,595.018738 
	C319.182800,595.520752 312.354431,596.304260 304.813171,596.732300 
	C299.831879,588.061279 295.554108,579.618225 291.474457,570.895264 
	C295.364899,561.811462 291.462524,555.572632 284.858795,550.186401 
	C284.917938,550.106567 285.034637,549.945801 285.034637,549.945801 
z"/>
<path fill="#1B1A35" opacity="1.000000" stroke="none" 
	d="
M789.973877,514.036011 
	C794.876221,517.762878 799.799133,521.463074 804.671143,525.229187 
	C806.737305,526.826355 808.696655,528.561890 810.935242,530.860168 
	C813.447449,533.983826 815.728943,536.481750 818.010437,538.979736 
	C818.360596,540.606689 818.710754,542.233582 819.173218,544.382141 
	C807.746155,547.380432 795.851379,548.261963 783.095337,547.497986 
	C780.661316,546.803345 778.924622,546.025635 777.214539,546.080261 
	C770.282532,546.301636 763.358582,546.778809 756.086304,547.152832 
	C756.153015,545.218811 756.285645,543.178406 757.023865,541.387634 
	C760.938904,531.890564 765.005981,522.456177 769.020386,513.000061 
	C769.020386,513.000061 768.990234,513.000061 769.281433,512.809937 
	C770.908203,509.713104 772.243774,506.806458 773.775146,503.473724 
	C775.161133,504.362823 776.192932,505.024780 777.312988,505.951538 
	C780.287354,508.834320 783.173462,511.452271 786.154541,514.154236 
	C786.249512,514.238220 786.585999,514.303284 786.585999,514.303284 
	C786.585999,514.303284 786.846436,514.053223 787.116333,514.144714 
	C788.248718,514.169434 789.111328,514.102722 789.973877,514.036011 
M796.415588,522.032837 
	C795.829895,521.362793 795.244202,520.692749 794.658447,520.022705 
	C794.368225,520.327087 794.077942,520.631531 793.787720,520.935913 
	C794.547913,521.425659 795.308105,521.915405 796.415588,522.032837 
M789.828064,517.959595 
	C790.445435,518.244019 791.062805,518.528442 791.680176,518.812866 
	C791.787354,518.427246 791.894592,518.041565 792.001831,517.655945 
	C791.194092,517.609680 790.386353,517.563477 789.828064,517.959595 
M799.372192,525.456909 
	C799.982910,525.692322 800.593628,525.927734 801.204407,526.163147 
	C801.244690,525.747131 801.285034,525.331116 801.325378,524.915100 
	C800.579285,524.971252 799.833130,525.027405 799.372192,525.456909 
z"/>
<path fill="#2C1A2C" opacity="1.000000" stroke="none" 
	d="
M291.276306,571.175110 
	C295.554108,579.618225 299.831879,588.061279 304.346893,596.693604 
	C301.284790,597.587280 297.985413,598.291870 294.262695,598.923035 
	C291.887421,594.133728 290.239380,589.263000 287.929138,584.729675 
	C279.553345,568.293762 270.955475,551.971008 262.119995,535.045837 
	C260.859375,531.716370 259.922852,528.789185 263.411591,527.181091 
	C266.425171,525.792114 268.467407,527.464111 269.868835,530.095276 
	C270.414703,531.120178 270.872375,532.193176 271.440063,533.205139 
	C274.583344,538.808105 277.748108,544.398926 280.928162,550.370361 
	C284.392639,557.556152 287.834473,564.365662 291.276306,571.175110 
z"/>
<path fill="#EFAD1A" opacity="1.000000" stroke="none" 
	d="
M255.806885,544.093323 
	C253.883057,547.234741 251.597717,550.379761 249.033234,553.563965 
	C244.119415,530.965759 239.488983,508.327484 234.847504,485.691437 
	C233.460022,478.924713 232.041702,472.164337 230.413467,464.321930 
	C228.828064,467.188202 227.761993,469.115601 226.478561,471.217041 
	C228.289383,460.889740 225.378799,450.912354 223.410614,440.437164 
	C227.612503,437.716156 224.105499,437.177002 222.868851,436.097412 
	C220.237305,424.585602 217.574478,413.080841 214.988998,401.558685 
	C213.897537,396.694550 212.969055,391.793854 211.898468,386.494354 
	C212.447006,383.405945 213.063538,380.732941 213.680054,378.059906 
	C214.364014,378.109894 215.047974,378.159882 215.731918,378.209869 
	C227.048660,434.632782 238.365402,491.055725 249.832870,548.230164 
	C252.463028,546.293274 253.954193,545.195129 255.806885,544.093323 
z"/>
<path fill="#ECAB14" opacity="1.000000" stroke="none" 
	d="
M779.040771,484.994141 
	C780.655151,481.162323 782.194031,477.296448 783.901367,473.506500 
	C786.556396,467.612915 789.435669,461.818909 792.024780,455.897369 
	C797.746887,442.810059 803.441833,429.709045 808.945862,416.529266 
	C810.853455,411.961426 812.164246,407.144348 814.157898,402.550507 
	C815.116089,400.193939 815.968445,397.786346 817.071411,395.499634 
	C817.753357,394.085693 818.942566,392.918732 819.647278,391.512268 
	C819.932556,390.942841 819.534180,390.030823 819.335449,388.814209 
	C820.481750,386.950867 821.739563,385.547974 822.997314,384.145081 
	C828.171326,383.522278 827.706421,387.214020 826.603882,389.854156 
	C821.600647,401.834930 816.180420,413.640961 810.965332,425.534088 
	C805.294128,438.467377 799.673218,451.422760 794.053345,464.378510 
	C792.268250,468.493896 790.556641,472.641144 788.141357,476.933899 
	C787.024292,478.758179 786.577209,480.422424 786.130127,482.086670 
	C786.130127,482.086670 786.119751,482.132904 785.811157,481.985535 
	C783.348633,482.890137 781.194702,483.942139 779.040771,484.994141 
z"/>
<path fill="#F72D2B" opacity="1.000000" stroke="none" 
	d="
M222.271545,616.889893 
	C222.812744,611.433838 230.569885,607.519470 236.607376,609.602600 
	C240.665222,614.389771 244.283752,619.115479 248.047989,623.722107 
	C252.800140,629.537720 252.831543,630.727539 247.370712,636.064514 
	C245.436844,637.954529 243.245621,639.581177 240.806717,641.635620 
	C234.795914,634.379150 229.119568,627.614014 223.582977,620.736450 
	C222.853622,619.830444 222.838440,618.349548 222.271545,616.889893 
z"/>
<path fill="#ECAB14" opacity="1.000000" stroke="none" 
	d="
M677.453857,571.937378 
	C677.710144,570.465027 678.407837,569.064819 679.051453,567.355591 
	C699.276489,565.692566 719.570374,564.508911 739.815430,562.760864 
	C742.240173,562.551453 744.753052,559.566956 746.592957,557.345215 
	C748.862061,554.605164 750.469055,551.316711 752.866577,548.275391 
	C754.220703,549.167053 755.070435,550.048462 755.920288,550.929871 
	C754.541504,554.855164 753.148010,558.775391 751.787598,562.707031 
	C750.004700,567.859497 745.399597,567.699646 741.324341,567.926392 
	C731.426392,568.476929 721.493408,568.435059 711.603149,569.074524 
	C700.351013,569.801941 689.129883,571.010254 677.453857,571.937378 
z"/>
<path fill="#ECAB14" opacity="1.000000" stroke="none" 
	d="
M262.684875,598.804749 
	C261.791870,597.692322 261.336456,596.666199 260.762543,595.373108 
	C269.479431,591.939392 278.278107,592.765869 287.014282,593.642944 
	C288.020538,593.743896 288.820648,595.898438 289.669678,597.473083 
	C280.789490,598.193848 271.955994,598.542419 262.684875,598.804749 
z"/>
<path fill="#F4B425" opacity="1.000000" stroke="none" 
	d="
M779.005249,485.368591 
	C781.194702,483.942139 783.348633,482.890137 785.787720,481.989258 
	C783.842590,487.517761 781.490662,492.849670 779.451782,498.298737 
	C778.793152,500.058960 778.956665,502.126801 778.553589,504.532959 
	C777.983643,505.236938 777.604248,505.461823 777.224792,505.686707 
	C776.192932,505.024780 775.161133,504.362823 773.775146,503.473724 
	C772.243774,506.806458 770.908203,509.713104 769.289124,512.822876 
	C770.159790,509.108002 771.098022,505.109619 772.520630,501.291718 
	C774.478455,496.037323 776.802551,490.919403 779.005249,485.368591 
z"/>
<path fill="#2C1A2C" opacity="1.000000" stroke="none" 
	d="
M425.799835,368.143372 
	C416.803375,368.438141 407.588928,368.438141 397.311279,368.438141 
	C399.080750,366.280334 399.762665,365.448792 400.309631,364.312775 
	C410.829803,362.664154 421.484863,361.320038 432.580078,360.000061 
	C429.118988,364.633881 423.389099,362.838013 418.539459,364.111633 
	C416.241974,364.715027 413.834961,364.901428 411.536499,366.436310 
	C416.218262,366.907104 420.900055,367.377869 425.799835,368.143372 
z"/>
<path fill="#F4B425" opacity="1.000000" stroke="none" 
	d="
M756.167236,550.789185 
	C755.070435,550.048462 754.220703,549.167053 753.137695,548.070496 
	C754.195740,543.941772 755.259583,539.934448 756.827454,536.135071 
	C759.720459,529.124390 762.868652,522.217285 766.023315,515.318604 
	C766.440979,514.405273 767.518127,513.793579 768.655090,513.021118 
	C765.005981,522.456177 760.938904,531.890564 757.023865,541.387634 
	C756.285645,543.178406 756.153015,545.218811 756.238037,547.490356 
	C756.924316,548.542297 757.113464,549.247864 757.302612,549.953491 
	C757.006470,550.185181 756.710327,550.416870 756.167236,550.789185 
z"/>
<path fill="#2C1A2C" opacity="1.000000" stroke="none" 
	d="
M620.134277,375.055176 
	C614.898071,379.194733 608.768982,376.531494 602.499756,376.739807 
	C605.419556,376.230713 608.773071,375.847107 613.025574,375.360657 
	C607.352661,369.695312 602.264160,364.613617 597.133545,359.177856 
	C603.247375,363.509735 609.371521,368.238556 615.585571,372.846069 
	C616.849304,373.783051 618.451782,374.263031 620.134277,375.055176 
z"/>
<path fill="#F4B425" opacity="1.000000" stroke="none" 
	d="
M822.563904,384.081299 
	C821.739563,385.547974 820.481750,386.950867 819.092468,388.661957 
	C818.525574,388.965851 818.090210,388.961578 817.328003,388.945251 
	C815.310730,388.297028 813.667908,387.397827 811.919556,387.081451 
	C808.648804,386.489502 805.316895,386.235504 802.010437,385.840912 
	C802.003174,385.414246 801.995911,384.987610 801.988708,384.560944 
	C804.421936,384.220337 806.855225,383.879761 809.617554,383.342255 
	C814.007935,383.436066 818.069153,383.726776 822.563904,384.081299 
z"/>
<path fill="#2C1A2C" opacity="1.000000" stroke="none" 
	d="
M757.703857,550.026794 
	C757.113464,549.247864 756.924316,548.542297 756.583435,547.499146 
	C763.358582,546.778809 770.282532,546.301636 777.214539,546.080261 
	C778.924622,546.025635 780.661316,546.803345 782.620544,547.469604 
	C774.605225,548.527283 766.355164,549.313721 757.703857,550.026794 
z"/>
<path fill="#2C1A2C" opacity="1.000000" stroke="none" 
	d="
M777.312988,505.951538 
	C777.604248,505.461823 777.983643,505.236938 778.669495,504.876282 
	C782.479919,507.684448 785.983948,510.628387 789.730957,513.804199 
	C789.111328,514.102722 788.248718,514.169434 786.920166,514.148621 
	C786.454224,514.061035 786.059631,514.070251 786.059631,514.070251 
	C783.173462,511.452271 780.287354,508.834320 777.312988,505.951538 
z"/>
<path fill="#2C1A2C" opacity="1.000000" stroke="none" 
	d="
M550.454346,345.119659 
	C547.292542,347.615906 543.586792,349.234344 539.160889,346.437561 
	C542.672668,345.762054 546.346985,345.408630 550.454346,345.119659 
z"/>
<path fill="#2C1A2C" opacity="1.000000" stroke="none" 
	d="
M818.325684,538.982849 
	C815.728943,536.481750 813.447449,533.983826 811.128540,531.126648 
	C813.833801,532.706726 816.615295,534.596680 819.256042,536.666077 
	C819.504456,536.860779 818.867004,538.185791 818.325684,538.982849 
z"/>
<path fill="#FEAF04" opacity="1.000000" stroke="none" 
	d="
M222.926071,436.492249 
	C224.105499,437.177002 227.612503,437.716156 223.494064,440.043701 
	C223.121567,439.021759 223.052429,437.954437 222.926071,436.492249 
z"/>
<path fill="#F4B425" opacity="1.000000" stroke="none" 
	d="
M786.458740,481.931976 
	C786.577209,480.422424 787.024292,478.758179 787.811279,477.090607 
	C787.696594,478.650604 787.242004,480.213928 786.458740,481.931976 
z"/>
<path fill="#FDFAEB" opacity="1.000000" stroke="none" 
	d="
M489.805420,486.999634 
	C489.798859,496.330902 489.597839,505.168030 489.867126,513.990784 
	C490.004608,518.495789 488.258392,520.064758 484.000488,519.514282 
	C482.856934,519.366333 481.668427,519.437622 480.512268,519.540039 
	C477.344055,519.820801 476.017273,518.519165 476.020905,515.247803 
	C476.053711,485.755310 476.019440,456.262573 475.925323,426.770203 
	C475.914062,423.237762 477.360565,421.893616 480.780426,422.462097 
	C481.430664,422.570190 482.110870,422.501404 482.777313,422.507843 
	C495.554169,422.631561 495.494537,422.646118 498.606049,435.215881 
	C501.365875,446.365021 504.259888,457.481171 507.143860,468.599091 
	C507.541870,470.133301 508.223236,471.593994 509.899445,473.016296 
	C510.029510,470.829102 510.271637,468.641846 510.271240,466.454681 
	C510.268768,453.626892 510.286377,440.798157 510.122406,427.971954 
	C510.074066,424.191376 510.701721,422.132935 515.329285,422.368866 
	C523.886536,422.805176 523.903992,422.522675 523.910278,428.109192 
	C523.942444,456.601715 523.873230,485.095001 524.103638,513.585938 
	C524.141357,518.248535 522.589355,519.772095 518.119019,519.619751 
	C506.423492,519.221191 508.548737,520.926514 505.678497,510.043182 
	C501.349060,493.627045 497.194275,477.164856 492.929047,460.731659 
	C492.518799,459.150909 491.853424,457.636353 491.306488,456.091095 
	C490.806183,456.117188 490.305908,456.143280 489.805603,456.169373 
	C489.805603,466.279449 489.805603,476.389496 489.805420,486.999634 
z"/>
<path fill="#FDFCEF" opacity="1.000000" stroke="none" 
	d="
M378.324463,425.274139 
	C387.696228,418.469788 405.258270,419.840729 410.821899,428.886017 
	C413.408539,433.091370 415.545776,438.317993 415.691284,443.147797 
	C416.247833,461.621643 416.122162,480.125793 415.819000,498.611542 
	C415.674866,507.400482 412.563599,515.142029 403.680023,518.738464 
	C394.246582,522.557556 385.109863,521.894714 376.806946,515.446533 
	C372.078613,511.774475 370.165649,506.451660 370.066681,500.964691 
	C369.715271,481.483093 369.762939,461.991028 369.926056,442.505157 
	C369.982605,435.749786 372.594635,429.853241 378.324463,425.274139 
M394.162994,435.218384 
	C387.665466,435.470490 385.135437,437.824310 385.098297,444.363068 
	C384.998260,461.986725 385.004791,479.611847 385.113220,497.235474 
	C385.152710,503.652161 387.889160,506.866821 392.769958,506.934509 
	C397.608185,507.001587 400.693848,503.677338 400.748566,497.496399 
	C400.906067,479.707306 400.926727,461.915497 400.786804,444.126434 
	C400.755981,440.207916 399.551788,436.490570 394.162994,435.218384 
z"/>
<path fill="#FDFCEF" opacity="1.000000" stroke="none" 
	d="
M437.891205,513.773315 
	C437.896027,485.149994 437.989044,456.995819 437.793304,428.843658 
	C437.759003,423.907593 438.964233,422.125183 444.244019,422.461792 
	C453.183716,423.031769 453.135101,422.669617 453.121552,431.647369 
	C453.080811,458.634644 453.101105,485.622040 453.097870,512.609375 
	C453.097046,519.641907 453.094147,519.754944 445.857178,519.532288 
	C442.258148,519.421570 437.098572,521.163513 437.891205,513.773315 
z"/>
<path fill="#F4B425" opacity="1.000000" stroke="none" 
	d="
M580.237671,420.905762 
	C580.215515,419.657593 580.050293,418.707611 579.886230,417.764160 
	C580.207886,417.587463 580.703674,417.265381 580.734680,417.305206 
	C583.970947,421.461487 588.296387,420.539398 592.659790,420.115051 
	C596.102173,419.780304 597.893921,421.713165 597.896362,425.231842 
	C597.909546,443.996185 597.804260,462.762115 598.030212,481.523987 
	C598.107178,487.915070 598.856201,494.319458 599.716553,500.660980 
	C599.880615,501.869781 602.330078,503.898895 603.165527,503.652435 
	C604.942139,503.128326 607.135925,501.648193 607.734741,500.032257 
	C608.744019,497.308533 608.947388,494.176270 608.964417,491.212830 
	C609.065002,473.730499 609.050781,456.247131 608.974548,438.764557 
	C608.963013,436.126312 608.005676,433.454987 608.225220,430.861572 
	C608.570129,426.788452 609.543884,422.768585 610.079773,419.706726 
	C615.777039,419.706726 619.867859,419.706726 625.465881,419.706726 
	C628.476990,421.436188 629.210876,425.506012 629.023193,430.315460 
	C628.517517,443.268219 628.250854,456.231598 628.014709,469.193085 
	C627.881226,476.516785 627.918518,483.846252 628.042236,491.170380 
	C628.080872,493.457947 628.653870,495.736420 628.980896,498.019226 
	C629.119812,498.988586 629.704102,500.211761 629.322083,500.888367 
	C625.953369,506.855621 623.188416,513.419128 618.707642,518.432312 
	C614.098755,523.588928 606.810913,522.590271 600.359009,522.286743 
	C596.731445,522.116089 592.881592,522.061646 589.588806,520.780518 
	C586.732849,519.669250 583.381409,517.388428 582.266296,514.766479 
	C580.104004,509.682281 578.310181,504.014526 578.209229,498.554504 
	C577.778564,475.251862 577.959412,451.936371 578.109802,428.626801 
	C578.125793,426.148346 579.402588,423.678070 580.237671,420.905762 
M610.910278,498.073761 
	C610.779175,499.062469 610.678955,500.056458 610.511719,501.039032 
	C609.684937,505.898682 606.124451,506.938110 602.007690,506.848450 
	C597.984741,506.760864 596.122803,504.204498 595.643738,500.462524 
	C595.433228,498.817871 595.231995,497.156769 595.230225,495.502930 
	C595.207581,474.359406 595.201477,453.215790 595.235962,432.072266 
	C595.251343,422.653381 595.294861,422.822662 585.702759,422.697784 
	C581.748413,422.646332 580.000244,423.596710 580.029236,427.933655 
	C580.184082,451.073853 579.770081,474.223846 580.343201,497.350861 
	C580.479065,502.833588 582.580322,508.967407 585.669495,513.517090 
	C590.601929,520.781494 602.215271,522.662781 611.689697,519.290100 
	C620.104980,516.294495 624.672791,509.949341 625.037781,500.197968 
	C625.292969,493.380646 625.216980,486.549530 625.222900,479.724548 
	C625.237671,462.576660 625.077393,445.426941 625.301270,428.282074 
	C625.359253,423.842438 623.857117,422.165222 619.588135,422.677612 
	C618.767395,422.776154 617.914062,422.788727 617.095154,422.686218 
	C612.465027,422.106659 610.805176,423.789948 610.859497,428.737640 
	C611.109802,451.543121 610.949829,474.353119 610.910278,498.073761 
z"/>
<path fill="#F4B425" opacity="1.000000" stroke="none" 
	d="
M671.233521,452.095947 
	C671.624451,449.826202 672.106140,447.886444 672.658508,445.662109 
	C672.204590,445.577118 671.149536,445.379547 671.293579,445.406525 
	C670.128540,442.487610 669.265381,440.325043 668.402161,438.162476 
	C666.684204,439.496979 663.601624,440.793884 663.563538,442.174744 
	C663.504211,444.323608 665.514038,446.529572 667.086792,449.558502 
	C664.544312,451.947449 666.671631,454.893280 669.693298,457.525909 
	C674.805298,461.979828 680.017639,466.318542 685.942261,471.345886 
	C686.418823,472.483063 687.323303,475.006042 688.502502,477.393341 
	C694.269348,489.067993 695.981995,507.062836 684.878174,517.838623 
	C679.140259,523.407104 672.317017,523.210999 665.346130,522.833130 
	C662.218872,522.663574 658.885254,522.297974 656.093933,521.032104 
	C653.143555,519.694031 650.623718,517.300354 648.097229,515.154236 
	C641.139526,509.244171 644.059448,500.361206 641.914978,492.993591 
	C641.619934,491.979980 645.320312,489.730316 647.282898,488.196075 
	C647.663452,487.898499 648.564270,488.274536 649.226135,488.326965 
	C653.128784,488.636017 657.306580,488.167175 660.869385,489.431824 
	C666.028137,491.263153 660.954407,496.194550 662.930481,499.613861 
	C664.882202,502.990967 665.510010,503.519653 668.228821,500.684570 
	C669.195740,499.676300 670.568970,499.057617 671.627808,498.347565 
	C674.656555,487.300934 665.435181,483.060760 659.428772,476.988586 
	C652.518860,470.002991 645.253235,463.230164 643.540527,452.880127 
	C641.430725,440.130615 644.459839,429.023682 654.968445,420.851990 
	C656.662964,419.534332 659.562866,419.734497 661.918823,419.305725 
	C669.761597,417.878326 677.320618,419.151825 683.871155,423.437622 
	C686.652100,425.257111 688.503601,428.930573 690.020752,432.121277 
	C691.422424,435.069000 691.987244,438.464203 692.612488,441.721436 
	C694.024902,449.078552 690.843994,452.893066 683.280396,452.911621 
	C679.295410,452.921387 675.309692,452.598572 671.233521,452.095947 
M671.426392,506.163635 
	C662.875549,507.762085 659.852783,505.535004 659.841248,496.901917 
	C659.835266,492.452087 658.519470,490.641235 653.815063,490.797699 
	C644.916016,491.093597 644.587158,491.219879 645.466797,500.184082 
	C645.580383,501.341583 645.770325,502.498993 646.024292,503.634247 
	C648.600586,515.148010 655.890320,520.849670 667.771179,520.670105 
	C680.254578,520.481323 687.942261,514.393250 690.009766,502.746704 
	C691.674133,493.371063 690.597778,484.332764 684.458374,476.723267 
	C680.408203,471.703339 675.568420,467.324890 671.148193,462.597473 
	C668.654297,459.930237 665.756531,457.436157 664.026672,454.317261 
	C662.333252,451.264008 661.272339,447.558502 661.036926,444.064972 
	C660.629761,438.020721 663.379272,435.177490 668.516174,435.097260 
	C673.129944,435.025146 676.157959,438.043976 675.903015,443.756134 
	C675.683777,448.665985 677.718201,449.647278 682.022583,449.542297 
	C690.567200,449.333923 691.115540,448.877838 689.908203,440.366455 
	C689.768127,439.378815 689.556824,438.400360 689.354187,437.422699 
	C687.263916,427.340424 679.634583,421.286041 668.975708,421.244904 
	C656.880981,421.198181 648.902161,426.825592 646.592285,437.062164 
	C643.297241,451.665100 648.901794,463.023376 659.395569,472.737915 
	C663.769592,476.787140 668.237793,480.875854 671.850647,485.571716 
	C676.841492,492.058777 676.587769,500.587738 671.426392,506.163635 
M673.505005,442.466095 
	C673.505005,442.466095 673.525513,442.517792 673.505005,442.466095 
z"/>
<path fill="#F4B425" opacity="1.000000" stroke="none" 
	d="
M319.010437,526.989258 
	C315.325592,528.502014 313.664124,530.491211 318.654083,534.065308 
	C315.134460,534.361511 312.800385,534.557983 310.165649,534.399231 
	C312.824524,529.948669 315.784027,525.853394 319.342041,520.929932 
	C314.351807,521.372253 310.453186,521.646729 306.578369,522.117371 
	C305.737488,522.219482 304.392883,522.913879 304.277679,523.523804 
	C302.997559,530.301147 301.913788,537.115540 300.777008,543.919983 
	C301.138367,543.988281 301.499695,544.056580 301.861053,544.124878 
	C304.477509,540.987244 307.093964,537.849609 309.710419,534.711914 
	C311.070953,537.081543 312.431519,539.451111 313.897583,542.271362 
	C311.316101,544.446533 308.629059,546.171082 304.823975,548.613281 
	C308.037048,548.199890 309.929993,547.956299 311.876129,547.788208 
	C311.929352,547.863586 312.040588,548.010925 312.040588,548.010925 
	C307.318115,551.386902 306.199677,551.096680 298.694122,544.956177 
	C298.694122,539.732239 298.671936,535.117310 298.700989,530.502686 
	C298.725159,526.663391 304.261688,520.452942 308.266388,519.712952 
	C316.776489,518.140381 316.776489,518.140381 317.021973,509.400879 
	C317.191925,503.349731 317.699493,502.878296 323.896210,503.015259 
	C328.322144,503.113098 330.892700,500.500305 330.972961,495.295990 
	C331.108948,486.478241 331.024475,477.657043 331.023407,468.837280 
	C331.021729,454.692352 330.990601,440.547394 331.016113,426.402527 
	C331.027740,419.952606 331.496918,419.574127 337.724396,419.973389 
	C339.380585,420.079590 341.061676,420.105835 342.711273,419.952728 
	C349.635254,419.310120 349.653168,419.276886 350.717255,426.134979 
	C350.920105,427.442413 350.953796,428.786285 350.954620,430.113373 
	C350.968170,451.746796 351.084320,473.381470 350.866425,495.012695 
	C350.820465,499.574554 349.928680,504.229156 348.743591,508.658264 
	C345.777405,519.743774 337.095551,522.150391 327.108093,521.935303 
	C323.451080,521.856628 320.468201,522.326965 319.147583,526.672485 
	C319.000336,526.999817 319.010437,526.989258 319.010437,526.989258 
M348.189545,469.500000 
	C348.196381,456.688416 348.195038,443.876831 348.212921,431.065247 
	C348.224701,422.632019 348.237122,422.632050 339.738892,422.749969 
	C333.115356,422.841888 333.140930,422.841858 333.141083,429.494659 
	C333.141571,451.623627 333.130096,473.752594 333.105530,495.881561 
	C333.097412,503.185059 330.537079,506.019562 323.372253,506.002747 
	C320.313324,505.995575 319.081085,507.025574 319.128571,509.961792 
	C319.158142,511.789093 319.145630,513.624939 319.003876,515.445435 
	C318.772430,518.418030 320.154022,519.711609 323.042908,519.814270 
	C337.691071,520.334717 347.593048,515.052002 348.037750,498.449921 
	C348.287170,489.138580 348.151764,479.816986 348.189545,469.500000 
z"/>
<path fill="#F4B425" opacity="1.000000" stroke="none" 
	d="
M337.630615,540.741455 
	C335.065735,542.708984 332.500824,544.676575 329.927765,546.650391 
	C336.600372,550.323914 336.707031,552.688110 330.124969,557.482666 
	C329.910156,556.846069 330.022308,556.483398 330.409668,555.944214 
	C331.575836,554.321106 332.466736,552.874695 333.947601,550.470459 
	C323.300720,552.059082 313.909668,553.460266 304.518646,554.861511 
	C304.507965,555.194458 304.497314,555.527405 304.486633,555.860352 
	C306.191162,556.361328 307.895691,556.862244 309.850098,557.579346 
	C310.944000,558.011963 311.788025,558.228333 312.908691,558.660522 
	C314.968353,559.430298 316.751404,559.984253 318.829529,560.731323 
	C323.907135,564.086060 327.159668,562.063232 329.747833,557.789246 
	C328.715393,559.949829 328.169708,562.641235 326.532654,564.142517 
	C324.266479,566.220642 321.944763,565.783752 319.387848,563.123108 
	C317.579742,561.241577 313.993042,561.062988 311.194794,560.140930 
	C307.915253,559.060242 304.604279,558.067078 301.365234,556.877258 
	C300.585236,556.590698 300.035095,555.678467 299.379211,555.054016 
	C300.154449,554.339722 300.835327,553.174377 301.721191,552.989075 
	C305.597076,552.178589 309.526917,551.615112 313.448822,551.041260 
	C314.987640,550.815979 316.556763,550.797974 318.112122,550.685547 
	C318.188751,550.104614 318.265381,549.523682 318.341980,548.942810 
	C316.510559,548.629333 314.679138,548.315857 312.444153,548.006653 
	C312.040588,548.010925 311.929352,547.863586 312.196472,547.600525 
	C320.852600,545.138794 329.241638,542.940125 337.630615,540.741455 
z"/>
<path fill="#F72D2B" opacity="1.000000" stroke="none" 
	d="
M337.682983,540.493347 
	C329.241638,542.940125 320.852600,545.138794 312.143250,547.525146 
	C309.929993,547.956299 308.037048,548.199890 304.823975,548.613281 
	C308.629059,546.171082 311.316101,544.446533 314.244202,542.447632 
	C314.485229,542.173279 314.708496,542.139099 315.051208,541.985107 
	C315.607361,541.559570 315.820831,541.287964 316.034302,541.016357 
	C316.034302,541.016357 316.001190,541.043335 316.333649,541.059937 
	C317.284973,540.587708 317.903870,540.098877 318.522766,539.610107 
	C318.522766,539.610107 318.767609,539.582092 319.156372,539.475342 
	C321.083984,538.606628 322.622772,537.844666 324.161591,537.082764 
	C325.658417,536.345581 327.155273,535.608459 329.216492,534.538452 
	C331.106262,533.684204 332.431671,533.162720 333.757080,532.641235 
	C334.218109,533.036438 334.679108,533.431641 335.492493,534.300842 
	C336.508698,535.891235 337.172516,537.007568 337.836304,538.123962 
	C337.836334,538.123962 337.734131,538.110718 337.717224,538.428345 
	C337.782532,539.092102 337.864746,539.438232 337.946960,539.784424 
	C337.876434,539.938049 337.805878,540.091614 337.682983,540.493347 
z"/>
<path fill="#EFAD1A" opacity="1.000000" stroke="none" 
	d="
M280.905518,549.994019 
	C277.748108,544.398926 274.583344,538.808105 271.440063,533.205139 
	C270.872375,532.193176 270.414703,531.120178 269.868835,530.095276 
	C268.467407,527.464111 266.425171,525.792114 263.411591,527.181091 
	C259.922852,528.789185 260.859375,531.716370 261.819336,534.781494 
	C260.172852,537.762756 258.505646,540.448608 256.554626,543.336609 
	C257.112335,538.460205 257.548828,533.260681 259.010132,528.367310 
	C259.537292,526.601990 262.384308,524.808533 264.430847,524.432312 
	C266.264313,524.095276 269.390656,525.088562 270.315948,526.536865 
	C273.665100,531.778625 276.174927,537.548340 279.319305,542.933228 
	C280.709991,545.314819 282.861267,547.252136 284.850952,549.668457 
	C285.034637,549.945801 284.917938,550.106567 284.471252,550.150391 
	C282.984894,550.127441 281.945190,550.060730 280.905518,549.994019 
z"/>
<path fill="#F4B425" opacity="1.000000" stroke="none" 
	d="
M296.827454,521.300903 
	C297.404877,522.541382 297.677521,523.808899 297.950134,525.076355 
	C297.153229,525.051514 296.356293,525.026672 295.559387,525.001831 
	C295.880493,523.777161 296.201599,522.552551 296.827454,521.300903 
z"/>
<path fill="#EFAD1A" opacity="1.000000" stroke="none" 
	d="
M303.004333,588.004272 
	C303.136200,586.674194 303.263855,585.339783 303.391479,584.005432 
	C303.851318,584.081787 304.311157,584.158203 304.770996,584.234619 
	C304.386932,585.406677 304.002869,586.578796 303.305176,587.871948 
	C302.991577,587.993103 303.000122,588.000000 303.004333,588.004272 
z"/>
<path fill="#F4B425" opacity="1.000000" stroke="none" 
	d="
M333.667297,532.375244 
	C332.431671,533.162720 331.106262,533.684204 329.429749,534.307983 
	C329.719452,531.964172 330.745453,530.271118 333.667297,532.375244 
z"/>
<path fill="#F4B425" opacity="1.000000" stroke="none" 
	d="
M323.895752,536.882019 
	C322.622772,537.844666 321.083984,538.606628 319.154297,539.352112 
	C320.385620,538.450928 322.007782,537.566101 323.895752,536.882019 
z"/>
<path fill="#F4B425" opacity="1.000000" stroke="none" 
	d="
M318.994934,527.004150 
	C319.684662,527.770203 320.379791,528.531982 321.074921,529.293762 
	C320.668335,529.556946 320.261749,529.820129 319.855194,530.083313 
	C319.583496,529.270142 319.311798,528.457031 319.025269,527.316528 
	C319.010437,526.989258 319.000336,526.999817 318.994934,527.004150 
z"/>
<path fill="#F4B425" opacity="1.000000" stroke="none" 
	d="
M337.869507,537.743103 
	C337.172516,537.007568 336.508698,535.891235 335.752563,534.457886 
	C336.407715,535.214722 337.155212,536.288513 337.869507,537.743103 
z"/>
<path fill="#F4B425" opacity="1.000000" stroke="none" 
	d="
M318.287903,539.388672 
	C317.903870,540.098877 317.284973,540.587708 316.354309,541.065308 
	C316.712677,540.425232 317.382874,539.796265 318.287903,539.388672 
z"/>
<path fill="#F4B425" opacity="1.000000" stroke="none" 
	d="
M679.212219,417.168243 
	C679.668091,417.505615 679.906555,417.823486 680.145020,418.141357 
	C679.723328,418.188751 679.301697,418.236176 678.880005,418.283569 
	C678.918274,417.905304 678.956482,417.527039 679.212219,417.168243 
z"/>
<path fill="#F4B425" opacity="1.000000" stroke="none" 
	d="
M338.197632,539.758789 
	C337.864746,539.438232 337.782532,539.092102 337.709167,538.479248 
	C338.200470,538.427368 338.682892,538.642212 339.165344,538.857056 
	C338.926300,539.149109 338.687286,539.441162 338.197632,539.758789 
z"/>
<path fill="#F4B425" opacity="1.000000" stroke="none" 
	d="
M695.733276,487.597961 
	C695.559265,487.603149 695.412842,487.489624 695.266479,487.376099 
	C695.431274,487.410492 695.596069,487.444855 695.733276,487.597961 
z"/>
<path fill="#F4B425" opacity="1.000000" stroke="none" 
	d="
M315.815247,541.143799 
	C315.820831,541.287964 315.607361,541.559570 315.135406,541.909790 
	C315.116669,541.749451 315.356445,541.510376 315.815247,541.143799 
z"/>
<path fill="#ECAB14" opacity="1.000000" stroke="none" 
	d="
M809.506592,390.506622 
	C809.487915,390.513306 809.525330,390.499939 809.506592,390.506622 
z"/>
<path fill="#2C1A2C" opacity="1.000000" stroke="none" 
	d="
M598.823914,376.198486 
	C586.656799,375.981110 574.274414,375.460144 561.461670,374.815796 
	C565.762146,374.457520 570.508606,373.864288 575.220398,374.068665 
	C583.028198,374.407288 590.813782,375.259186 598.823914,376.198486 
z"/>
<path fill="#2C1A2C" opacity="1.000000" stroke="none" 
	d="
M512.815430,372.162109 
	C499.996521,371.932770 486.959747,371.404510 473.494202,370.760132 
	C476.522858,370.422241 479.985840,369.951508 483.436798,370.027435 
	C492.232452,370.220947 501.023804,370.635834 509.813721,371.031586 
	C510.752258,371.073853 511.670135,371.574982 512.815430,372.162109 
z"/>
<path fill="#2C1A2C" opacity="1.000000" stroke="none" 
	d="
M465.787628,369.982635 
	C463.431641,370.205566 460.828552,370.217590 458.230835,370.105255 
	C448.809845,369.697784 439.390625,369.248505 429.538330,368.694092 
	C433.711426,368.379517 438.329865,367.872803 442.919434,368.063049 
	C450.470459,368.376038 458.002777,369.140503 465.787628,369.982635 
z"/>
<path fill="#2C1A2C" opacity="1.000000" stroke="none" 
	d="
M552.439575,374.083099 
	C541.141968,373.783417 529.529541,373.339081 517.481812,372.775635 
	C521.662170,372.434021 526.294861,371.854370 530.889771,372.071838 
	C537.981628,372.407440 545.047791,373.288635 552.439575,374.083099 
z"/>
<path fill="#000000" opacity="1.000000" stroke="none" 
	d="
M198.468979,603.168884 
	C198.683014,603.087463 198.911255,603.146790 199.139496,603.206177 
	C198.920731,603.240662 198.701950,603.275146 198.468979,603.168884 
z"/>
<path fill="#000000" opacity="1.000000" stroke="none" 
	d="
M207.008545,613.987183 
	C207.569305,614.039062 208.130081,614.090881 208.690842,614.142700 
	C208.653564,614.331238 208.616302,614.519714 208.579025,614.708252 
	C208.158554,614.588196 207.738083,614.468140 207.158539,614.174011 
	C206.999435,614.000000 207.008545,613.987183 207.008545,613.987183 
z"/>
<path fill="#000000" opacity="1.000000" stroke="none" 
	d="
M201.933090,610.083252 
	C201.800140,609.747314 201.667206,609.411316 201.534256,609.075378 
	C201.710678,609.230896 201.887100,609.386414 202.039307,609.769409 
	C202.015106,609.996826 201.933090,610.083252 201.933090,610.083252 
z"/>
<path fill="#000000" opacity="1.000000" stroke="none" 
	d="
M206.993652,614.005859 
	C206.708084,613.839722 206.428314,613.667725 206.148529,613.495850 
	C206.369781,613.556763 206.591064,613.617737 206.910431,613.832947 
	C207.008545,613.987183 206.999435,614.000000 206.993652,614.005859 
z"/>
<path fill="#000000" opacity="1.000000" stroke="none" 
	d="
M200.468262,605.501831 
	C200.494965,605.490356 200.441574,605.513367 200.468262,605.501831 
z"/>
<path fill="#000000" opacity="1.000000" stroke="none" 
	d="
M202.058701,609.956238 
	C202.102295,609.915649 202.379105,610.211487 202.379105,610.211487 
	C202.379105,610.211487 202.061050,610.252930 201.997070,610.168091 
	C201.933090,610.083252 202.015106,609.996826 202.058701,609.956238 
z"/>
<path fill="#F4B425" opacity="1.000000" stroke="none" 
	d="
M795.003906,385.948700 
	C794.121704,385.777374 793.557434,385.605652 792.993225,385.433899 
	C792.988770,385.108887 792.984314,384.783844 792.979858,384.458801 
	C794.276611,384.361267 795.573364,384.263763 796.870117,384.166229 
	C796.951843,384.483215 797.033569,384.800201 797.115295,385.117188 
	C796.517456,385.394226 795.919678,385.671234 795.003906,385.948700 
z"/>
<path fill="#F72D2B" opacity="1.000000" stroke="none" 
	d="
M280.928162,550.370361 
	C281.945190,550.060730 282.984894,550.127441 284.412109,550.230225 
	C291.462524,555.572632 295.364899,561.811462 291.474457,570.895264 
	C287.834473,564.365662 284.392639,557.556152 280.928162,550.370361 
z"/>
<path fill="#000000" opacity="1.000000" stroke="none" 
	d="
M796.241943,522.218994 
	C795.308105,521.915405 794.547913,521.425659 793.787720,520.935913 
	C794.077942,520.631531 794.368225,520.327087 794.658447,520.022705 
	C795.244202,520.692749 795.829895,521.362793 796.241943,522.218994 
z"/>
<path fill="#000000" opacity="1.000000" stroke="none" 
	d="
M789.703369,517.738403 
	C790.386353,517.563477 791.194092,517.609680 792.001831,517.655945 
	C791.894592,518.041565 791.787354,518.427246 791.680176,518.812866 
	C791.062805,518.528442 790.445435,518.244019 789.703369,517.738403 
z"/>
<path fill="#000000" opacity="1.000000" stroke="none" 
	d="
M799.229614,525.270203 
	C799.833130,525.027405 800.579285,524.971252 801.325378,524.915100 
	C801.285034,525.331116 801.244690,525.747131 801.204407,526.163147 
	C800.593628,525.927734 799.982910,525.692322 799.229614,525.270203 
z"/>
<path fill="#000000" opacity="1.000000" stroke="none" 
	d="
M786.154541,514.154236 
	C786.059631,514.070251 786.454224,514.061035 786.650330,514.057129 
	C786.846436,514.053223 786.585999,514.303284 786.585999,514.303284 
	C786.585999,514.303284 786.249512,514.238220 786.154541,514.154236 
z"/>
<path fill="#EFAD1A" opacity="1.000000" stroke="none" 
	d="
M394.547363,435.285339 
	C399.551788,436.490570 400.755981,440.207916 400.786804,444.126434 
	C400.926727,461.915497 400.906067,479.707306 400.748566,497.496399 
	C400.693848,503.677338 397.608185,507.001587 392.769958,506.934509 
	C387.889160,506.866821 385.152710,503.652161 385.113220,497.235474 
	C385.004791,479.611847 384.998260,461.986725 385.098297,444.363068 
	C385.135437,437.824310 387.665466,435.470490 394.547363,435.285339 
z"/>
<path fill="#FDFCEF" opacity="1.000000" stroke="none" 
	d="
M610.923645,497.617615 
	C610.949829,474.353119 611.109802,451.543121 610.859497,428.737640 
	C610.805176,423.789948 612.465027,422.106659 617.095154,422.686218 
	C617.914062,422.788727 618.767395,422.776154 619.588135,422.677612 
	C623.857117,422.165222 625.359253,423.842438 625.301270,428.282074 
	C625.077393,445.426941 625.237671,462.576660 625.222900,479.724548 
	C625.216980,486.549530 625.292969,493.380646 625.037781,500.197968 
	C624.672791,509.949341 620.104980,516.294495 611.689697,519.290100 
	C602.215271,522.662781 590.601929,520.781494 585.669495,513.517090 
	C582.580322,508.967407 580.479065,502.833588 580.343201,497.350861 
	C579.770081,474.223846 580.184082,451.073853 580.029236,427.933655 
	C580.000244,423.596710 581.748413,422.646332 585.702759,422.697784 
	C595.294861,422.822662 595.251343,422.653381 595.235962,432.072266 
	C595.201477,453.215790 595.207581,474.359406 595.230225,495.502930 
	C595.231995,497.156769 595.433228,498.817871 595.643738,500.462524 
	C596.122803,504.204498 597.984741,506.760864 602.007690,506.848450 
	C606.124451,506.938110 609.684937,505.898682 610.511719,501.039032 
	C610.678955,500.056458 610.779175,499.062469 610.923645,497.617615 
z"/>
<path fill="#FDFAEB" opacity="1.000000" stroke="none" 
	d="
M671.786011,505.984802 
	C676.587769,500.587738 676.841492,492.058777 671.850647,485.571716 
	C668.237793,480.875854 663.769592,476.787140 659.395569,472.737915 
	C648.901794,463.023376 643.297241,451.665100 646.592285,437.062164 
	C648.902161,426.825592 656.880981,421.198181 668.975708,421.244904 
	C679.634583,421.286041 687.263916,427.340424 689.354187,437.422699 
	C689.556824,438.400360 689.768127,439.378815 689.908203,440.366455 
	C691.115540,448.877838 690.567200,449.333923 682.022583,449.542297 
	C677.718201,449.647278 675.683777,448.665985 675.903015,443.756134 
	C676.157959,438.043976 673.129944,435.025146 668.516174,435.097260 
	C663.379272,435.177490 660.629761,438.020721 661.036926,444.064972 
	C661.272339,447.558502 662.333252,451.264008 664.026672,454.317261 
	C665.756531,457.436157 668.654297,459.930237 671.148193,462.597473 
	C675.568420,467.324890 680.408203,471.703339 684.458374,476.723267 
	C690.597778,484.332764 691.674133,493.371063 690.009766,502.746704 
	C687.942261,514.393250 680.254578,520.481323 667.771179,520.670105 
	C655.890320,520.849670 648.600586,515.148010 646.024292,503.634247 
	C645.770325,502.498993 645.580383,501.341583 645.466797,500.184082 
	C644.587158,491.219879 644.916016,491.093597 653.815063,490.797699 
	C658.519470,490.641235 659.835266,492.452087 659.841248,496.901917 
	C659.852783,505.535004 662.875549,507.762085 671.786011,505.984802 
z"/>
<path fill="#FEAF04" opacity="1.000000" stroke="none" 
	d="
M673.515259,442.491943 
	C673.525513,442.517792 673.505005,442.466095 673.515259,442.491943 
z"/>
<path fill="#FDFCEF" opacity="1.000000" stroke="none" 
	d="
M348.189636,470.000000 
	C348.151764,479.816986 348.287170,489.138580 348.037750,498.449921 
	C347.593048,515.052002 337.691071,520.334717 323.042908,519.814270 
	C320.154022,519.711609 318.772430,518.418030 319.003876,515.445435 
	C319.145630,513.624939 319.158142,511.789093 319.128571,509.961792 
	C319.081085,507.025574 320.313324,505.995575 323.372253,506.002747 
	C330.537079,506.019562 333.097412,503.185059 333.105530,495.881561 
	C333.130096,473.752594 333.141571,451.623627 333.141083,429.494659 
	C333.140930,422.841858 333.115356,422.841888 339.738892,422.749969 
	C348.237122,422.632050 348.224701,422.632019 348.212921,431.065247 
	C348.195038,443.876831 348.196381,456.688416 348.189636,470.000000 
z"/>
<path fill="#2C1A2C" opacity="1.000000" stroke="none" 
	d="
M309.760742,534.739624 
	C307.093964,537.849609 304.477509,540.987244 301.861053,544.124878 
	C301.499695,544.056580 301.138367,543.988281 300.777008,543.919983 
	C301.913788,537.115540 302.997559,530.301147 304.277679,523.523804 
	C304.392883,522.913879 305.737488,522.219482 306.578369,522.117371 
	C310.453186,521.646729 314.351807,521.372253 319.342041,520.929932 
	C315.784027,525.853394 312.824524,529.948669 309.786987,534.368896 
	C309.708923,534.693848 309.811035,534.767273 309.760742,534.739624 
z"/>
<path fill="#2C1A2C" opacity="1.000000" stroke="none" 
	d="
M309.600250,557.363159 
	C307.895691,556.862244 306.191162,556.361328 304.486633,555.860352 
	C304.497314,555.527405 304.507965,555.194458 304.518646,554.861511 
	C313.909668,553.460266 323.300720,552.059082 333.947601,550.470459 
	C332.466736,552.874695 331.575836,554.321106 330.305511,555.855103 
	C329.926117,555.942566 329.717438,555.764771 329.731567,555.415894 
	C328.447632,554.480408 327.032990,553.221375 325.871552,553.422791 
	C320.639954,554.329834 315.480103,555.651001 310.119354,556.956055 
	C309.944305,557.089172 309.600250,557.363159 309.600250,557.363159 
z"/>
<path fill="#2C1A2C" opacity="1.000000" stroke="none" 
	d="
M329.784882,557.813721 
	C327.159668,562.063232 323.907135,564.086060 318.960876,560.572205 
	C318.797211,560.220032 319.057983,559.900330 319.430725,559.926636 
	C324.685638,562.291016 326.470581,557.297607 329.717438,555.764771 
	C329.717438,555.764771 329.926117,555.942566 330.030273,556.031677 
	C330.022308,556.483398 329.910156,556.846069 329.770874,557.492432 
	C329.743744,557.776245 329.821930,557.838196 329.784882,557.813721 
z"/>
<path fill="#2C1A2C" opacity="1.000000" stroke="none" 
	d="
M318.665833,560.379150 
	C316.751404,559.984253 314.968353,559.430298 313.013794,558.524780 
	C312.842255,558.173157 313.050446,557.900024 313.418762,557.923340 
	C315.544037,558.597839 317.300995,559.249084 319.057983,559.900330 
	C319.057983,559.900330 318.797211,560.220032 318.665833,560.379150 
z"/>
<path fill="#2C1A2C" opacity="1.000000" stroke="none" 
	d="
M312.737152,558.308960 
	C311.788025,558.228333 310.944000,558.011963 309.850098,557.579346 
	C309.600250,557.363159 309.944305,557.089172 310.407776,557.016479 
	C311.597626,557.262512 312.324036,557.581299 313.050446,557.900024 
	C313.050446,557.900024 312.842255,558.173157 312.737152,558.308960 
z"/>
<path fill="#1B1A35" opacity="1.000000" stroke="none" 
	d="
M313.418762,557.923340 
	C312.324036,557.581299 311.597626,557.262512 310.582825,556.883301 
	C315.480103,555.651001 320.639954,554.329834 325.871552,553.422791 
	C327.032990,553.221375 328.447632,554.480408 329.731567,555.415894 
	C326.470581,557.297607 324.685638,562.291016 319.430725,559.926636 
	C317.300995,559.249084 315.544037,558.597839 313.418762,557.923340 
z"/>
</svg>