<?xml version="1.0" standalone="no"?>
<!DOCTYPE svg PUBLIC "-//W3C//DTD SVG 20010904//EN"
 "http://www.w3.org/TR/2001/REC-SVG-20010904/DTD/svg10.dtd">
<svg version="1.0" xmlns="http://www.w3.org/2000/svg"
 width="980.000000pt" height="980.000000pt" viewBox="0 0 980.000000 980.000000"
 preserveAspectRatio="xMidYMid meet">

<g transform="translate(0.000000,980.000000) scale(0.100000,-0.100000)"
fill="#000000" stroke="none">
<path d="M5615 6360 c-27 -4 -403 -53 -835 -109 -432 -56 -793 -105 -803 -109
-10 -4 355 -24 810 -45 455 -22 950 -45 1098 -52 149 -7 271 -11 273 -10 1 1
-90 76 -203 166 -226 180 -221 178 -340 159z"/>
<path d="M2286 5160 c-3 -14 -50 -260 -104 -547 l-98 -522 105 -3 106 -3 -144
-75 c-82 -42 -153 -86 -163 -101 -33 -44 -33 -96 -1 -159 37 -73 82 -103 143
-97 25 2 52 8 61 11 12 5 38 -21 105 -105 49 -62 92 -117 95 -122 8 -12 89 53
89 71 0 7 -36 58 -80 113 -63 79 -78 104 -70 115 22 26 216 113 287 128 117
26 232 20 321 -15 29 -12 34 -11 54 9 l23 22 -58 111 c-45 87 -55 114 -47 129
31 58 -8 148 -80 183 -42 20 -50 30 -96 121 -54 108 -80 134 -113 116 -16 -8
-21 -21 -21 -51 0 -45 -25 -99 -78 -171 -31 -41 -38 -46 -44 -31 -4 10 -46
207 -92 438 -46 231 -86 429 -89 440 -3 18 -5 17 -11 -5z"/>
<path d="M7630 4560 c-51 -116 -90 -213 -87 -216 5 -5 679 24 684 30 2 1 -70
61 -159 132 -89 71 -200 159 -246 197 -47 37 -88 67 -92 67 -4 0 -49 -95 -100
-210z"/>
<path d="M3068 4593 c-21 -2 -38 -7 -38 -11 0 -4 -8 -55 -19 -114 -10 -60 -15
-108 -11 -108 6 0 154 194 174 228 7 12 -21 14 -106 5z"/>
<path d="M3183 4407 c-73 -40 -129 -73 -124 -75 9 -3 289 65 303 74 10 7 -23
74 -36 73 -6 0 -70 -33 -143 -72z"/>
<path d="M3175 4284 c-77 -13 -144 -23 -150 -24 -12 -1 194 -79 212 -79 14 -1
96 116 85 122 -4 2 -70 -7 -147 -19z"/>
</g>
</svg>
